<svg viewBox="0 0 200 200" xmlns="http://www.w3.org/2000/svg">
  <defs>
    <linearGradient id="lav" x1="0" y1="0" x2="0" y2="1">
      <stop offset="0%" stop-color="#D4B8E0"/>
      <stop offset="100%" stop-color="#B794C7"/>
    </linearGradient>
  </defs>
  <rect x="40" y="60" width="120" height="90" rx="14" fill="url(#lav)"/>
  <rect x="40" y="60" width="120" height="90" rx="14" fill="white" opacity="0.15"/>
  <rect x="48" y="68" width="104" height="74" rx="10" fill="none" stroke="white" stroke-width="1" opacity="0.3"/>
  <!-- Lavender sprigs -->
  <line x1="80" y1="55" x2="80" y2="30" stroke="#8B6B9E" stroke-width="1.5"/>
  <circle cx="80" cy="28" r="3" fill="#C4A0D9"/>
  <circle cx="80" cy="35" r="2.5" fill="#C4A0D9"/>
  <circle cx="80" cy="42" r="2" fill="#C4A0D9"/>
  <line x1="100" y1="55" x2="100" y2="25" stroke="#8B6B9E" stroke-width="1.5"/>
  <circle cx="100" cy="23" r="3" fill="#C4A0D9"/>
  <circle cx="100" cy="30" r="2.5" fill="#C4A0D9"/>
  <circle cx="100" cy="37" r="2" fill="#C4A0D9"/>
  <line x1="120" y1="55" x2="120" y2="32" stroke="#8B6B9E" stroke-width="1.5"/>
  <circle cx="120" cy="30" r="3" fill="#C4A0D9"/>
  <circle cx="120" cy="37" r="2.5" fill="#C4A0D9"/>
  <circle cx="120" cy="44" r="2" fill="#C4A0D9"/>
  <!-- Label -->
  <text x="100" y="112" text-anchor="middle" font-family="serif" font-size="11" fill="white" opacity="0.9">LAVENDER</text>
  <!-- Shadow -->
  <ellipse cx="100" cy="160" rx="55" ry="8" fill="#3A3A3A" opacity="0.06"/>
</svg>
